HIERARCHY
ROOT Hips
{
	OFFSET 0.000000 0.000000 0.000000
	CHANNELS 6 Xposition Yposition Zposition Zrotation Yrotation Xrotation 
	JOINT LeftUpLeg_virtual
	{
		OFFSET 0.000000 0.000000 0.000000
		CHANNELS 3 Zrotation Yrotation Xrotation
		JOINT LeftUpLeg
		{
			OFFSET 10.205400 -3.823500 0.155100
			CHANNELS 3 Zrotation Yrotation Xrotation
			JOINT LeftLeg
			{
				OFFSET 0.708757 -12.982077 0.567790
				CHANNELS 3 Zrotation Yrotation Xrotation
				JOINT LeftFoot
				{
					OFFSET -0.708756 -10.717838 -2.184338
					CHANNELS 3 Zrotation Yrotation Xrotation
					JOINT LeftToeBase
					{
						OFFSET 0.108149 -7.191104 7.560241
						CHANNELS 3 Zrotation Yrotation Xrotation
						End Site
						{
							OFFSET 0.000000 0.000000 0.000000
						}
					}
				}
			}
		}
	}
	JOINT RightUpLeg_virtual
	{
		OFFSET 0.000000 0.000000 0.000000
		CHANNELS 3 Zrotation Yrotation Xrotation
		JOINT RightUpLeg
		{
			OFFSET -10.205400 -3.823500 0.005500
			CHANNELS 3 Zrotation Yrotation Xrotation
			JOINT RightLeg
			{
				OFFSET -0.708756 -12.982134 0.610632
				CHANNELS 3 Zrotation Yrotation Xrotation
				JOINT RightFoot
				{
					OFFSET 0.708754 -10.717769 -1.945823
					CHANNELS 3 Zrotation Yrotation Xrotation
					JOINT RightToeBase
					{
						OFFSET -0.108140 -7.191069 7.372968
						CHANNELS 3 Zrotation Yrotation Xrotation
						End Site
						{
							OFFSET 0.000000 0.000000 0.000000
						}
					}
				}
			}
		}
	}
	JOINT Spine_virtual
	{
		OFFSET 0.000000 0.000000 0.000000
		CHANNELS 3 Zrotation Yrotation Xrotation
		JOINT Spine
		{
			OFFSET 0.000000 6.876099 0.125700
			CHANNELS 3 Zrotation Yrotation Xrotation
			JOINT Spine1
			{
				OFFSET 0.000000 8.022060 0.146608
				CHANNELS 3 Zrotation Yrotation Xrotation
				JOINT Spine2
				{
					OFFSET 0.000000 9.168068 0.167552
					CHANNELS 3 Zrotation Yrotation Xrotation
					JOINT Neck_virtual
					{
						OFFSET 0.000000 0.000000 0.000000
						CHANNELS 3 Zrotation Yrotation Xrotation
						JOINT Neck
						{
							OFFSET 0.000000 10.314075 0.188496
							CHANNELS 3 Zrotation Yrotation Xrotation
							JOINT Head
							{
								OFFSET 0.000000 7.643700 -2.377400
								CHANNELS 3 Zrotation Yrotation Xrotation
								End Site
								{
									OFFSET 0.000000 0.000000 0.000000
								}
							}
						}
					}
					JOINT LeftShoulder_virtual
					{
						OFFSET 0.000000 0.000000 0.000000
						CHANNELS 3 Zrotation Yrotation Xrotation
						JOINT LeftShoulder
						{
							OFFSET 4.392200 8.824978 0.174984
							CHANNELS 3 Zrotation Yrotation Xrotation
							JOINT LeftArm
							{
								OFFSET 8.771219 -2.981674 -0.026999
								CHANNELS 3 Zrotation Yrotation Xrotation
								JOINT LeftForeArm
								{
									OFFSET 8.512804 0.000000 -0.000000
									CHANNELS 3 Zrotation Yrotation Xrotation
									JOINT LeftHand
									{
										OFFSET 18.484802 0.000000 -0.000000
										CHANNELS 3 Zrotation Yrotation Xrotation
										End Site
										{
											OFFSET 0.000000 0.000000 0.000000
										}
									}
								}
							}
						}
					}
					JOINT RightShoulder_virtual
					{
						OFFSET 0.000000 0.000000 0.000000
						CHANNELS 3 Zrotation Yrotation Xrotation
						JOINT RightShoulder
						{
							OFFSET -4.392200 8.824993 0.141379
							CHANNELS 3 Zrotation Yrotation Xrotation
							JOINT RightArm
							{
								OFFSET -8.771282 -2.981682 -0.094208
								CHANNELS 3 Zrotation Yrotation Xrotation
								JOINT RightForeArm
								{
									OFFSET -8.494598 0.000000 0.000000
									CHANNELS 3 Zrotation Yrotation Xrotation
									JOINT RightHand
									{
										OFFSET -18.483803 0.000000 0.000001
										CHANNELS 3 Zrotation Yrotation Xrotation
										End Site
										{
											OFFSET 0.000000 0.000000 0.000000
										}
									}
								}
							}
						}
					}
				}
			}
		}
	}
}
MOTION
Frames: 5
Frame Time: 0.033333
-30.628662 36.197426 -29.621632 -179.920802 -9.413816 -179.987014 -0.949630 -4.977322 8.896934 -7.583323 5.241500 -24.469701 13.351385 2.679589 20.944353 -14.920784 -1.196306 10.304135 0.000000 0.000000 0.000000 2.763089 -3.467957 10.003925 0.363361 -0.751946 -20.193574 -7.481625 3.061406 20.160715 9.351378 -0.292467 12.073850 0.000000 0.000000 0.000000 2.342953 -0.356762 -7.165553 1.286103 2.659237 -7.934667 -0.819927 -3.198863 8.522443 -0.001721 0.035285 -0.032232 -1.394783 -1.238153 10.780684 -1.253233 -5.212935 14.271936 0.000000 0.000000 0.000000 0.538819 -0.729988 7.926167 -13.206468 -3.061844 3.724527 -54.495952 22.557239 17.666295 1.026467 -45.609859 3.818971 0.000000 0.000000 0.000000 -3.571545 0.444642 7.346510 23.921139 1.452232 2.644527 54.168707 -21.683037 15.355414 -3.631513 31.706093 -2.651513 0.000000 0.000000 0.000000 
-30.678495 36.201462 -29.652390 -179.924545 -9.414135 179.995183 -0.989760 -4.953442 8.898911 -7.759234 5.290078 -24.510229 13.191107 2.885786 21.190192 -15.168414 -1.358225 9.996042 0.000000 0.000000 0.000000 2.706726 -3.388588 10.064148 0.391624 -1.142466 -20.063529 -7.294198 2.551360 20.277208 8.875671 -0.673443 12.097721 0.000000 0.000000 0.000000 2.359953 -0.224208 -7.116477 1.261664 2.612162 -7.917496 -0.843147 -3.210243 8.549839 -0.003979 0.023815 0.022895 -1.335099 -1.114927 10.736785 -1.221025 -5.277966 14.268332 0.000000 0.000000 0.000000 0.578446 -0.780328 7.926620 -13.229463 -3.108753 3.711328 -54.582251 22.477570 17.655098 1.124872 -45.672532 3.684004 0.000000 0.000000 0.000000 -3.512959 0.423467 7.246090 23.890605 1.415655 2.650572 54.121862 -21.615346 15.230533 -3.678239 31.717493 -2.621623 0.000000 0.000000 0.000000 
-30.756071 36.204578 -29.653666 -179.954898 -9.515838 179.995251 -1.097200 -5.009232 8.821287 -7.826720 5.271937 -24.501565 13.202750 2.951002 21.365597 -15.106416 -1.302099 9.919424 0.000000 0.000000 0.000000 2.611557 -3.424186 10.010167 0.251462 -0.746267 -19.922858 -7.476498 2.270491 20.359846 8.926647 -0.522902 11.998075 0.000000 0.000000 0.000000 2.366398 -0.237919 -7.052871 1.246937 2.575203 -7.927703 -0.851821 -3.223833 8.565577 0.010544 -0.000782 0.015801 -1.349930 -1.276542 10.746832 -1.110283 -5.334907 14.245497 0.000000 0.000000 0.000000 0.561321 -0.750004 7.912734 -13.284729 -3.061714 3.695964 -54.695841 22.426480 17.688336 1.167810 -45.797098 3.634742 0.000000 0.000000 0.000000 -3.532300 0.480780 7.295929 23.896853 1.479431 2.624948 54.087585 -21.589943 15.104101 -3.736573 31.637706 -2.625365 0.000000 0.000000 0.000000 
-30.858541 36.210491 -29.627792 -179.939927 -9.562428 -179.906022 -1.063594 -4.947284 8.680831 -7.981476 5.240632 -24.455757 13.196942 3.259844 21.249907 -15.071456 -1.271027 10.049932 0.000000 0.000000 0.000000 2.652403 -3.396599 9.875127 0.006799 -0.388899 -19.780750 -7.569191 2.437949 20.202168 8.942282 -0.532008 11.987645 0.000000 0.000000 0.000000 2.418670 -0.249695 -7.027860 1.249829 2.588549 -8.012295 -0.845537 -3.206781 8.534461 0.024198 0.008953 -0.007165 -1.395876 -1.165682 10.778213 -1.047859 -5.517229 14.182470 0.000000 0.000000 0.000000 0.561576 -0.693744 8.000707 -13.320911 -3.065276 3.639487 -54.858263 22.336267 17.853623 1.240464 -45.858508 3.553736 0.000000 0.000000 0.000000 -3.559567 0.494447 7.326847 23.899136 1.570493 2.582729 54.078805 -21.582156 14.907880 -3.864101 31.554832 -2.572342 0.000000 0.000000 0.000000 
-30.981535 36.217762 -29.587101 -179.969064 -9.718357 -179.983244 -1.080821 -5.024779 8.742974 -8.230956 5.175496 -24.471856 13.223860 3.601848 21.161121 -14.997176 -1.223791 10.283517 0.000000 0.000000 0.000000 2.658925 -3.561480 9.874869 -0.340186 0.003713 -19.624727 -7.691204 2.584913 20.064242 9.007346 -0.365287 12.017029 0.000000 0.000000 0.000000 2.420285 -0.336834 -6.838573 1.218616 2.613543 -8.033172 -0.741733 -3.185318 8.553252 -0.024965 -0.001346 0.045581 -1.364241 -1.159888 10.721140 -0.861169 -5.678100 14.104977 0.000000 0.000000 0.000000 0.597007 -0.726500 7.885056 -13.388181 -3.015900 3.591226 -54.978310 22.401590 18.024424 1.434072 -45.982548 3.380635 0.000000 0.000000 0.000000 -3.537958 0.398218 7.349938 23.926339 1.707163 2.541756 54.061080 -21.637182 14.873796 -3.927371 31.347109 -2.516633 0.000000 0.000000 0.000000 
